<svg xmlns="http://www.w3.org/2000/svg" viewBox="0 0 800 410">
  <style>
    text { font-family: 'Courier New', 'Courier', monospace; text-anchor: middle; fill: #1a2f5e; }
    .title { font-size: 16px; font-weight: bold; }
    .name { font-size: 14px; }
    .caption { font-size: 12px; opacity: 0.6; }

    .box { fill: #f4f0e6; stroke: #1a2f5e; stroke-width: 1.5; stroke-opacity: 0.35; }
    .current { fill: #1a2f5e; fill-opacity: 0.10; stroke-opacity: 0.85; stroke-width: 2.5; }
    .eliminated { stroke-opacity: 0.12; }
    .found { fill: #1a2f5e; stroke-opacity: 0; }
    .ring { fill: none; stroke: #1a2f5e; stroke-width: 1.2; stroke-opacity: 0.35; stroke-dasharray: 5 4; }
    .strike { stroke: #1a2f5e; stroke-opacity: 0.7; stroke-width: 1.6; }

    .faded { fill-opacity: 0.45; }
    .pending { fill-opacity: 0.4; }
    .midname { font-weight: bold; }
    .oncream { fill: #f4f0e6; font-weight: bold; }
    .frame { fill: none; stroke: #1a2f5e; stroke-opacity: 0.15; }
  </style>

  <rect width="800" height="410" fill="#f4f0e6" />
  <rect x="1" y="1" width="798" height="408" rx="6" class="frame" />
  <text x="400" y="34" class="title">Binary Search &#183; Step 1</text>

  <g transform="translate(170, 62)">
    <rect width="80" height="40" rx="3" class="box" />
    <text x="40" y="25" class="name">Ada</text>
  </g>
  <g transform="translate(270, 62)">
    <rect width="80" height="40" rx="3" class="box" />
    <text x="40" y="25" class="name">Alan</text>
  </g>
  <g transform="translate(370, 62)">
    <rect width="80" height="40" rx="3" class="box" />
    <text x="40" y="25" class="name">Anders</text>
  </g>
  <g transform="translate(470, 62)">
    <rect width="80" height="40" rx="3" class="box" />
    <text x="40" y="25" class="name">Bjarne</text>
  </g>
  <g transform="translate(570, 62)">
    <rect width="80" height="40" rx="3" class="box" />
    <text x="40" y="25" class="name">Brian</text>
  </g>
  <g transform="translate(170, 124)">
    <rect width="80" height="40" rx="3" class="box" />
    <text x="40" y="25" class="name">Charles</text>
  </g>
  <g transform="translate(270, 124)">
    <rect width="80" height="40" rx="3" class="box" />
    <text x="40" y="25" class="name">Dennis</text>
  </g>
  <g transform="translate(370, 124)">
    <rect width="80" height="40" rx="3" class="box" />
    <text x="40" y="25" class="name">Donald</text>
  </g>
  <g transform="translate(470, 124)">
    <rect width="80" height="40" rx="3" class="box" />
    <text x="40" y="25" class="name">Edsger</text>
  </g>
  <g transform="translate(570, 124)">
    <rect width="80" height="40" rx="3" class="box" />
    <text x="40" y="25" class="name">Frances</text>
  </g>
  <g transform="translate(170, 186)">
    <rect width="80" height="40" rx="3" class="box" />
    <text x="40" y="25" class="name">Guido</text>
  </g>
  <g transform="translate(270, 186)">
    <rect width="80" height="40" rx="3" class="box" />
    <text x="40" y="25" class="name">Grace</text>
  </g>
  <g transform="translate(370, 186)">
    <rect width="80" height="40" rx="3" class="box current" />
    <text x="40" y="25" class="name midname">James</text>
  </g>
  <g transform="translate(470, 186)">
    <rect width="80" height="40" rx="3" class="box eliminated" />
    <text x="40" y="25" class="name faded">John</text>
    <line x1="21.2" y1="20" x2="58.8" y2="20" class="strike" />
  </g>
  <g transform="translate(570, 186)">
    <rect width="80" height="40" rx="3" class="box eliminated" />
    <text x="40" y="25" class="name faded">Ken</text>
    <line x1="25.4" y1="20" x2="54.6" y2="20" class="strike" />
  </g>
  <g transform="translate(170, 248)">
    <rect width="80" height="40" rx="3" class="box eliminated" />
    <text x="40" y="25" class="name faded">Larry</text>
    <line x1="17.0" y1="20" x2="63.0" y2="20" class="strike" />
  </g>
  <g transform="translate(270, 248)">
    <rect width="80" height="40" rx="3" class="box eliminated" />
    <text x="40" y="25" class="name faded">Linus</text>
    <line x1="17.0" y1="20" x2="63.0" y2="20" class="strike" />
  </g>
  <g transform="translate(370, 248)">
    <rect width="80" height="40" rx="3" class="box eliminated" />
    <text x="40" y="25" class="name faded">Margaret</text>
    <line x1="4.4" y1="20" x2="75.6" y2="20" class="strike" />
  </g>
  <g transform="translate(470, 248)">
    <rect width="80" height="40" rx="3" class="box eliminated" />
    <text x="40" y="25" class="name faded">Martin</text>
    <line x1="12.8" y1="20" x2="67.2" y2="20" class="strike" />
  </g>
  <g transform="translate(570, 248)">
    <rect width="80" height="40" rx="3" class="box eliminated" />
    <text x="40" y="25" class="name faded">Niklaus</text>
    <line x1="8.6" y1="20" x2="71.4" y2="20" class="strike" />
  </g>

  <text x="400" y="345" class="caption">Finding "Guido": we check "James", the middle name.</text>
  <text x="400" y="367" class="caption">"Guido" comes before "James" alphabetically, so we eliminate the second half of the list.</text>
</svg>
