<svg xmlns="http://www.w3.org/2000/svg" viewBox="0 0 800 380">
  <style>
    text { font-family: 'Courier New', 'Courier', monospace; text-anchor: middle; fill: #1a2f5e; }
    .title { font-size: 16px; font-weight: bold; }
    .name { font-size: 14px; }
    .caption { font-size: 12px; opacity: 0.88; }

    .box { fill: #ffffff; stroke: #1a2f5e; stroke-width: 1.5; stroke-opacity: 0.5; }
    .current { fill: #1a2f5e; fill-opacity: 0.10; stroke-opacity: 0.9; stroke-width: 2.5; }
    .eliminated { stroke-opacity: 0.22; }
    .found { fill: #1a2f5e; stroke-opacity: 0; }
    .ring { fill: none; stroke: #1a2f5e; stroke-width: 1.2; stroke-opacity: 0.45; stroke-dasharray: 5 4; }
    .strike { stroke: #1a2f5e; stroke-opacity: 0.8; stroke-width: 1.6; }

    .faded { fill-opacity: 0.6; }
    .pending { fill-opacity: 0.55; }
    .midname { font-weight: bold; }
    .oncream { fill: #ffffff; font-weight: bold; }
    .frame { fill: none; stroke: #1a2f5e; stroke-opacity: 0.2; }
  </style>

  <rect width="800" height="380" fill="#ffffff" />
  <rect x="1" y="1" width="798" height="378" rx="6" class="frame" />
  <text x="400" y="34" class="title">Linear Search</text>

  <g transform="translate(170, 70)">
    <rect width="80" height="40" rx="3" class="box eliminated" />
    <text x="40" y="25" class="name faded">Ada</text>
    <line x1="25.4" y1="20" x2="54.6" y2="20" class="strike" />
  </g>
  <g transform="translate(270, 70)">
    <rect width="80" height="40" rx="3" class="box eliminated" />
    <text x="40" y="25" class="name faded">Alan</text>
    <line x1="21.2" y1="20" x2="58.8" y2="20" class="strike" />
  </g>
  <g transform="translate(370, 70)">
    <rect width="80" height="40" rx="3" class="box eliminated" />
    <text x="40" y="25" class="name faded">Anders</text>
    <line x1="12.8" y1="20" x2="67.2" y2="20" class="strike" />
  </g>
  <g transform="translate(470, 70)">
    <rect width="80" height="40" rx="3" class="box eliminated" />
    <text x="40" y="25" class="name faded">Bjarne</text>
    <line x1="12.8" y1="20" x2="67.2" y2="20" class="strike" />
  </g>
  <g transform="translate(570, 70)">
    <rect width="80" height="40" rx="3" class="box eliminated" />
    <text x="40" y="25" class="name faded">Brian</text>
    <line x1="17.0" y1="20" x2="63.0" y2="20" class="strike" />
  </g>
  <g transform="translate(170, 160)">
    <rect width="80" height="40" rx="3" class="box eliminated" />
    <text x="40" y="25" class="name faded">Charles</text>
    <line x1="8.6" y1="20" x2="71.4" y2="20" class="strike" />
  </g>
  <g transform="translate(270, 160)">
    <rect width="80" height="40" rx="3" class="box eliminated" />
    <text x="40" y="25" class="name faded">Dennis</text>
    <line x1="12.8" y1="20" x2="67.2" y2="20" class="strike" />
  </g>
  <g transform="translate(370, 160)">
    <rect width="80" height="40" rx="3" class="box eliminated" />
    <text x="40" y="25" class="name faded">Donald</text>
    <line x1="12.8" y1="20" x2="67.2" y2="20" class="strike" />
  </g>
  <g transform="translate(470, 160)">
    <rect width="80" height="40" rx="3" class="box eliminated" />
    <text x="40" y="25" class="name faded">Edsger</text>
    <line x1="12.8" y1="20" x2="67.2" y2="20" class="strike" />
  </g>
  <g transform="translate(570, 160)">
    <rect width="80" height="40" rx="3" class="box eliminated" />
    <text x="40" y="25" class="name faded">Frances</text>
    <line x1="8.6" y1="20" x2="71.4" y2="20" class="strike" />
  </g>
  <g transform="translate(170, 250)">
    <rect x="-5" y="-5" width="90" height="50" rx="6" class="ring" />
    <rect width="80" height="40" rx="3" class="box found" />
    <text x="40" y="25" class="name oncream">Guido</text>
  </g>
  <g transform="translate(270, 250)">
    <rect width="80" height="40" rx="3" class="box" />
    <text x="40" y="25" class="name pending">Grace</text>
  </g>
  <g transform="translate(370, 250)">
    <rect width="80" height="40" rx="3" class="box" />
    <text x="40" y="25" class="name pending">James</text>
  </g>
  <g transform="translate(470, 250)">
    <rect width="80" height="40" rx="3" class="box" />
    <text x="40" y="25" class="name pending">John</text>
  </g>
  <g transform="translate(570, 250)">
    <rect width="80" height="40" rx="3" class="box" />
    <text x="40" y="25" class="name pending">Ken</text>
  </g>

  <text x="400" y="345" class="caption">Linear search checks each name in order until finding "Guido" or reaching the end.</text>
  <text x="400" y="367" class="caption">"Guido" is the 11th name, so we need 11 checks: the ten crossed out, then Guido.</text>
</svg>
